<svg width="528" height="94" viewBox="0 0 528 94" fill="none" xmlns="http://www.w3.org/2000/svg">
<g filter="url(#filter0_d_1_31)">
<path d="M445.562 4.23438H443.062V6.73438V80V82.4957L445.558 82.5L472.511 82.5469H472.516C480.546 82.5469 487.626 81.6042 493.713 79.6631L493.724 79.6593C499.758 77.7025 504.853 74.9778 508.935 71.4351L508.944 71.4274C513.007 67.8686 516.052 63.6465 518.048 58.776L518.05 58.7704C520.026 53.915 521 48.6701 521 43.0625C521 37.1914 520.016 31.8274 517.997 27.0114C515.995 22.1295 512.918 17.9856 508.797 14.6048C504.701 11.1883 499.596 8.62752 493.56 6.86577C487.494 5.09529 480.435 4.23438 472.422 4.23438H445.562ZM494.391 58.7636L494.384 58.7695L494.378 58.7755C492.457 60.5884 490 62.044 486.943 63.1026C483.914 64.12 480.307 64.6562 476.078 64.6562H462.922V22.1719H476.078C480.317 22.1719 483.936 22.6951 486.973 23.6886C490.035 24.6904 492.49 26.0902 494.406 27.844L494.419 27.8563L494.433 27.8685C496.375 29.5949 497.838 31.7129 498.825 34.2619L498.828 34.2704C499.823 36.8116 500.344 39.7301 500.344 43.0625C500.344 46.4613 499.821 49.4679 498.818 52.1141C497.825 54.7357 496.35 56.9404 494.391 58.7636Z" stroke="#EABB00" stroke-width="5" shape-rendering="crispEdges"/>
</g>
<path d="M349.469 4.23438H346.969V6.73438V80V82.5H349.469H364.328H366.828V80V26.7448L407.484 47.9077V80V82.5H409.984H424.844H427.344V80V6.73438V4.23438H424.844H409.984H407.484V6.73438V26.5096L365.488 4.51962L364.943 4.23438H364.328H349.469Z" stroke="#EABB00" stroke-width="5"/>
<path d="M273.218 6.11022L273.213 6.11181C267.809 8.02295 263.111 10.7447 259.157 14.2964C255.232 17.8193 252.181 22.0482 250.01 26.9577C247.825 31.9009 246.75 37.3123 246.75 43.1562C246.75 49.0298 247.824 54.4836 250.005 59.484L250.008 59.4897C252.176 64.427 255.223 68.699 259.141 72.2824L259.149 72.2895C263.097 75.8699 267.789 78.6383 273.188 80.6134L273.197 80.6166L273.205 80.6197C278.667 82.5726 284.659 83.5312 291.156 83.5312C297.623 83.5312 303.6 82.5721 309.061 80.6197L309.073 80.6151C314.503 78.6408 319.199 75.8716 323.121 72.2857C327.071 68.7029 330.135 64.43 332.305 59.4897L332.307 59.484C334.488 54.4836 335.562 49.0298 335.562 43.1562C335.562 37.3123 334.488 31.9009 332.302 26.9577C330.13 22.0466 327.063 17.8179 323.108 14.2963C319.181 10.7409 314.48 8.01986 309.048 6.11022C303.591 4.19215 297.619 3.25 291.156 3.25C284.664 3.25 278.676 4.1917 273.218 6.11022ZM301.067 63.7178L301.06 63.7202C298.074 64.7724 294.78 65.3125 291.156 65.3125C287.534 65.3125 284.223 64.7729 281.202 63.719C278.204 62.662 275.631 61.1789 273.453 59.2831C271.321 57.3697 269.64 55.068 268.406 52.3521C267.225 49.6841 266.609 46.6331 266.609 43.1562C266.609 39.6788 267.225 36.6475 268.402 34.016C269.632 31.3354 271.306 29.1038 273.424 27.2888L273.426 27.287C275.598 25.421 278.166 23.9812 281.162 22.9822C284.195 21.9814 287.52 21.4688 291.156 21.4688C294.795 21.4688 298.102 21.9819 301.1 22.9811L301.107 22.9833C304.134 23.9828 306.695 25.4205 308.828 27.2766L308.835 27.2827L308.842 27.2888C310.962 29.1061 312.637 31.3409 313.868 34.026C315.073 36.6548 315.703 39.6822 315.703 43.1562C315.703 46.6297 315.073 49.6768 313.864 52.3423C312.629 55.0649 310.944 57.3716 308.807 59.2884C306.667 61.1769 304.099 62.6595 301.067 63.7178Z" stroke="#EABB00" stroke-width="5"/>
<path d="M203.205 43.1272L182.871 5.5447L182.162 4.23438H180.672H163.844H159.501L161.682 7.98994L193.359 62.5327V80V82.5H195.859H210.719H213.219V80V62.4322L244.481 7.9791L246.63 4.23438H242.312H225.484H223.986L223.279 5.55623L203.205 43.1272Z" stroke="#EABB00" stroke-width="5"/>
<path d="M93.5312 4.23438H91.0312V6.73438V80V82.5H93.5312H156.906H159.406V80V67.0156V64.5156H156.906H110.891V49.125H150.484H152.984V46.625V34.3906V31.8906H150.484H110.891V22.2656H155.922H158.422V19.7656V6.73438V4.23438H155.922H93.5312Z" stroke="#EABB00" stroke-width="5"/>
<g filter="url(#filter1_i_1_31)">
<path d="M5.40625 4.23438H2.90625V6.73438V80V82.5H5.40625H50.1719C55.153 82.5 59.5718 81.9674 63.3883 80.8529L63.3952 80.8509L63.402 80.8488C67.2173 79.7109 70.4787 78.0703 73.1056 75.8694L73.108 75.8674C75.7491 73.6489 77.7291 70.9646 79.0124 67.8329C80.3114 64.7386 80.9375 61.3284 80.9375 57.6406C80.9375 53.2299 80.0358 49.2008 78.1715 45.6129C76.6872 42.7563 74.6053 40.3404 71.9709 38.362C74.1963 34.9203 75.3125 31.0298 75.3125 26.75C75.3125 23.5627 74.6632 20.5595 73.345 17.7739C72.0342 14.9053 70.0264 12.4681 67.3877 10.4627C64.7414 8.45149 61.4889 6.94162 57.7039 5.87783C53.8916 4.76614 49.493 4.23438 44.5469 4.23438H5.40625ZM52.5654 24.052L52.5829 24.0645L52.6006 24.0766C53.979 25.023 54.6562 26.2788 54.6562 28.1562C54.6562 29.6612 54.1624 31.0702 53.0098 32.4301C52.1087 32.3829 51.1939 32.3594 50.2656 32.3594H22.7656V22.3125H44.9219C48.681 22.3125 51.1077 23.014 52.5654 24.052ZM58.0544 62.5521L58.0473 62.5579L58.0402 62.5638C56.6014 63.7628 54.2387 64.5625 50.5469 64.5625H22.7656V49.7812H50.5469C54.2298 49.7812 56.5855 50.5926 58.0232 51.8125L58.0302 51.8185L58.0373 51.8245C59.4765 53.0274 60.2812 54.7141 60.2812 57.2188C60.2812 59.7241 59.477 61.3842 58.0544 62.5521Z" stroke="#EABB00" stroke-width="5"/>
</g>
<defs>
<filter id="filter0_d_1_31" x="436.562" y="1.73438" width="90.9375" height="91.3125" filterUnits="userSpaceOnUse" color-interpolation-filters="sRGB">
<feFlood flood-opacity="0" result="BackgroundImageFix"/>
<feColorMatrix in="SourceAlpha" type="matrix" values="0 0 0 0 0 0 0 0 0 0 0 0 0 0 0 0 0 0 127 0" result="hardAlpha"/>
<feOffset dy="4"/>
<feGaussianBlur stdDeviation="2"/>
<feComposite in2="hardAlpha" operator="out"/>
<feColorMatrix type="matrix" values="0 0 0 0 0 0 0 0 0 0 0 0 0 0 0 0 0 0 0.25 0"/>
<feBlend mode="normal" in2="BackgroundImageFix" result="effect1_dropShadow_1_31"/>
<feBlend mode="normal" in="SourceGraphic" in2="effect1_dropShadow_1_31" result="shape"/>
</filter>
<filter id="filter1_i_1_31" x="0.40625" y="1.73438" width="83.0312" height="87.2656" filterUnits="userSpaceOnUse" color-interpolation-filters="sRGB">
<feFlood flood-opacity="0" result="BackgroundImageFix"/>
<feBlend mode="normal" in="SourceGraphic" in2="BackgroundImageFix" result="shape"/>
<feColorMatrix in="SourceAlpha" type="matrix" values="0 0 0 0 0 0 0 0 0 0 0 0 0 0 0 0 0 0 127 0" result="hardAlpha"/>
<feOffset dy="4"/>
<feGaussianBlur stdDeviation="2"/>
<feComposite in2="hardAlpha" operator="arithmetic" k2="-1" k3="1"/>
<feColorMatrix type="matrix" values="0 0 0 0 0 0 0 0 0 0 0 0 0 0 0 0 0 0 0.25 0"/>
<feBlend mode="normal" in2="shape" result="effect1_innerShadow_1_31"/>
</filter>
</defs>
</svg>
