<svg width="371" height="86" viewBox="0 0 371 86" fill="none" xmlns="http://www.w3.org/2000/svg">
<path d="M343.312 30.928L343.287 30.9199L343.262 30.9123C339.398 29.7362 336.7 28.6899 335.05 27.7936C333.912 27.1378 333.642 26.4904 333.642 25.752C333.642 25.4107 333.681 25.1431 333.739 24.9327C333.976 24.9271 334.261 24.924 334.598 24.924C337.566 24.924 344.554 25.3002 355.673 26.07L355.705 26.0722L355.737 26.0736L358.681 26.2016L360.807 26.2941L361.238 24.2105C361.76 21.6862 362.237 18.9151 362.668 15.9C363.183 12.8933 363.499 10.4442 363.591 8.59684L363.689 6.6325L361.803 6.07466C355.429 4.18924 347.358 3.284 337.67 3.284C333.727 3.284 329.551 3.73189 325.148 4.61254C322.962 5.04971 321.094 5.50803 319.568 5.99368C318.079 6.46759 316.758 7.01503 315.774 7.6919L315.755 7.70462L315.737 7.71766C313.41 9.37955 311.438 12.3336 309.68 16.1115C307.826 20.0084 306.882 24.0399 306.882 28.184C306.882 33.8244 308.11 38.6467 310.8 42.432C313.304 45.9557 316.291 48.6417 319.784 50.3881C323.014 52.0029 327.028 53.5411 331.793 55.0148C335.692 56.2866 338.243 57.3276 339.617 58.1236L339.661 58.1488L339.706 58.1723C340.21 58.4378 340.455 58.6972 340.582 58.8976C340.703 59.0885 340.802 59.3587 340.802 59.8C340.802 59.9554 340.749 60.3472 340.469 61.0475L340.442 61.1157L340.418 61.1854C340.381 61.2981 340.345 61.3818 340.314 61.4421C340.304 61.4433 340.294 61.4446 340.284 61.4458C339.893 61.4927 339.291 61.524 338.438 61.524C335.493 61.524 331.028 61.2356 324.99 60.6403C319.025 60.0438 314.588 59.536 311.656 59.1171L309.526 58.8129L308.907 60.8736C308.35 62.7322 307.775 65.458 307.174 68.9793L307.169 69.0042L307.166 69.0292C306.652 72.4546 306.302 75.1105 306.125 76.971L305.918 79.1446L308.044 79.6422C312.157 80.6047 316.684 81.3871 321.621 81.9934L321.626 81.994C326.634 82.5984 330.922 82.908 334.47 82.908C345.046 82.908 353.436 80.888 359.225 76.4382C365.14 71.8925 367.946 65.1233 367.946 56.6C367.946 51.2758 366.706 46.6989 364.004 43.0863C361.572 39.7251 358.619 37.1776 355.134 35.5293C352.011 34.0135 348.06 32.482 343.312 30.928ZM340.581 61.3981C340.599 61.3922 340.603 61.3921 340.588 61.3961C340.586 61.3966 340.584 61.3972 340.581 61.3981Z" stroke="white" stroke-width="5"/>
<path d="M282.172 81.5H284.672V79V24.54H302.78H305.28V22.04V6.03999V3.53999H302.78H238.524H236.024V6.03999V22.04V24.54H238.524H256.632V79V81.5H259.132H282.172Z" stroke="white" stroke-width="5"/>
<path d="M207.903 3.53999H205.403V6.03999V79V81.5H207.903H230.943H233.443V79V6.03999V3.53999H230.943H207.903Z" stroke="white" stroke-width="5"/>
<path d="M196.48 81.5H199.083L198.978 78.8992L196.034 5.9392L195.937 3.53999H193.536H156.16H154.089L153.704 5.575L148.488 33.1258L142.996 5.55162L142.595 3.53999H140.544H103.936H101.539L101.438 5.93482L98.3662 78.8948L98.2565 81.5H100.864H122.496H124.914L124.995 79.0833L126.147 44.5233L126.148 44.4817V44.44C126.148 43.1777 126.192 42.3885 126.251 41.9775L126.271 41.8346L126.275 41.6903C126.314 40.2341 126.353 38.8404 126.394 37.5092L127.597 43.5223L127.598 43.5298L127.6 43.5374L135.024 79.5054L135.435 81.5H137.472H158.976H160.984L161.417 79.5398L170.249 39.6038L170.255 39.5791L170.259 39.5543L170.753 37.0853C170.774 37.6747 170.794 38.2758 170.813 38.8886L170.814 38.9L170.814 38.9114L172.478 79.1034L172.577 81.5H174.976H196.48Z" stroke="white" stroke-width="5"/>
<path d="M66.403 3.53999H63.903V6.03999V79V81.5H66.403H89.443H91.943V79V6.03999V3.53999H89.443H66.403Z" stroke="white" stroke-width="5"/>
<path d="M5.144 3.53999H2.644V6.03999V79V81.5H5.144H58.008H60.508V79V62.104V59.604H58.008H30.684V6.03999V3.53999H28.184H5.144Z" stroke="white" stroke-width="5"/>
</svg>
